<svg xmlns="http://www.w3.org/2000/svg" viewBox="0 0 24 24"><g><path d="M23.63,5.71c-.12-1.16-.07-3.51-.91-4.15C20.8.07,16.56.47,13.92.36,10.41.21,6.76.5,3.3.6a.34.34,0,1,0,0,.67c3.48-.05,7-.28,10.55-.08,2.45.14,6.67-.13,8.25,1.13.4.32.41,2.67.49,3.49a41.58,41.58,0,0,1,.08,8.78,13.13,13.13,0,0,1-.45,2.89C19.8,18.84,2.58,19.81,1.55,18a8.43,8.43,0,0,1-.42-2.15,4.33,4.33,0,0,1,1.43,0c7.32-.07,3.25.12,9.81-.1,5-.17,8.35,0,8.44,0s1-.73-1.34-.79c-4.81-.35-6.93-.65-16.91.19a4.23,4.23,0,0,0-1.5.14A37.08,37.08,0,0,1,.84,8.8C1,7.07,1,5.34,1.27,3.62a7.26,7.26,0,0,1,.2-1.89.3.3,0,1,0-.42-.42C.64,1.72.71,3.06.64,3.53.38,5.26.31,7,.12,8.73c-.37,3.19.22,9,.63,9.74.79,1.45,5.78,1.56,7.5,1.59a4.2,4.2,0,0,0-.63,2.62l-2.15.16a.3.3,0,0,0,0,.59,73.07,73.07,0,0,0,7.86.2c1.38-.06,2.8-.22,4.24-.33a.34.34,0,0,0,0-.67c-.61,0-1.23,0-1.84,0a10.08,10.08,0,0,0-.8-2.75,41.46,41.46,0,0,0,6.77-.94c1.43-.39,1.69-.78,1.88-1.93A39.05,39.05,0,0,0,23.63,5.71ZM14.92,22.59c-2.87-.06-4.24-.09-6.54,0a7,7,0,0,0,.76-2.56c1.46,0,3,0,4.79-.15A6.36,6.36,0,0,0,14.92,22.59Z" fill="#191919" fill-rule="evenodd"></path><path d="M7.67,5.32a.3.3,0,1,0,.56-.2C7.54,3,2,5.68,3.14,9.72a3.21,3.21,0,0,0,3.61,2.44,2.9,2.9,0,0,0,1.54-.48,3,3,0,0,0,.53-.54.36.36,0,0,0-.33-.53,3.75,3.75,0,0,1-1.14.67,3.32,3.32,0,0,1-2.28-.45A3,3,0,0,1,4.4,7.4C5.24,5.34,7.43,4.68,7.67,5.32Z" fill="#0c6fff" fill-rule="evenodd"></path><path d="M12.87,5.18c.19,0,.68.13.77.3a.3.3,0,0,0,.53-.28A1.8,1.8,0,0,0,13,4.47a2.26,2.26,0,0,0-2.75,2.2c.09,1.79,2.73,1.86,3,3.14.22.89-1.14,1.93-1.82,1.47a.34.34,0,0,0-.39.55c1.24.93,3.47-.54,3.2-2.23-.31-1.84-2.87-2.17-3-3S12.12,5.12,12.87,5.18Z" fill="#0c6fff" fill-rule="evenodd"></path><path d="M18,11.36a1.76,1.76,0,0,1-1.82-.15.34.34,0,0,0-.48,0c-1,.83,4,2.7,4-1.46,0-1.89-3.26-2.19-3-3.18S19,5.29,19,5.82a.3.3,0,0,0,.59.11c.33-1.56-3.27-1.42-3.84.35-.64,2.05,2.88,2.48,2.95,3.48S18.47,11.14,18,11.36Z" fill="#0c6fff" fill-rule="evenodd"></path></g></svg>