<svg xmlns="http://www.w3.org/2000/svg" viewBox="0 0 24 24"><g><path d="M23.52,11.62a5.27,5.27,0,0,0-.91-1.25,9.2,9.2,0,0,0-.81-.73,7.21,7.21,0,0,0-.92-.59,16.5,16.5,0,0,0,.57-1.72,8.68,8.68,0,0,0,.28-2,4,4,0,0,0-1.89-3.53,4.93,4.93,0,0,0-3.92-.62,12.67,12.67,0,0,0-1.55.46,6,6,0,0,0-1.4.87.33.33,0,0,0,.4.52,5,5,0,0,1,1.26-.75,10.79,10.79,0,0,1,1.46-.41,4.21,4.21,0,0,1,3.31.58,3.26,3.26,0,0,1,1.47,2.86,8.19,8.19,0,0,1-.3,1.77A14,14,0,0,1,20,8.64,21.35,21.35,0,0,0,16,7.31l-.66-.13a.83.83,0,0,0-.08-.12A14.92,14.92,0,0,0,11.7,3.51a9.92,9.92,0,0,0-5.52-1.7c-5,.35-2.25,5.29-2,6-.38.13-.75.25-1.12.39A4.62,4.62,0,0,0,.13,10.76a2.89,2.89,0,0,0,.55,2.67,4.84,4.84,0,0,0,.56.64,4.48,4.48,0,0,0,.64.51A14.85,14.85,0,0,0,4.36,16c-.07.39-.15.77-.19,1.16s-.07.78-.08,1.17a9.55,9.55,0,0,0,0,1.2,3.67,3.67,0,0,0,2,3,4.9,4.9,0,0,0,3.57.19A7.8,7.8,0,0,0,12,21.52a10.45,10.45,0,0,0,1-.79,8.53,8.53,0,0,0,3.67,1.32,2.8,2.8,0,0,0,3.12-2.14,3.05,3.05,0,0,0,.13-.67,7.26,7.26,0,0,0,0-.93,7.5,7.5,0,0,0-.18-1.26,6.48,6.48,0,0,0,3.81-2.18A3,3,0,0,0,23.52,11.62ZM19.69,9.46c0,.08-.07.17-.11.26a23.32,23.32,0,0,1-1.43,2.82,27.22,27.22,0,0,0-2.21-4.42A19.84,19.84,0,0,1,19.69,9.46ZM12.42,19.1a12.05,12.05,0,0,1-1.52-1.51l.61.05c.89,0,1.69,0,2.49,0h.43c-.15.17-.29.35-.45.52-.37.41-.76.82-1.17,1.22A3.31,3.31,0,0,1,12.42,19.1ZM14,16.56c-.78,0-1.57,0-2.44,0a14.75,14.75,0,0,1-1.61-.13c-.46-.6-.91-1.21-1.35-1.82a34,34,0,0,1-2-3c.16-.37.33-.74.52-1.1A25.53,25.53,0,0,1,9,7.48a17.67,17.67,0,0,1,5.57.35c.18.26.36.52.52.79a27.2,27.2,0,0,1,2.34,5.09c-.1.15-.19.31-.3.47C16.6,15,16,15.76,15.4,16.52ZM8.66,16.2c-.63-.12-1.25-.26-1.87-.44-.47-.14-.93-.3-1.39-.47a17.06,17.06,0,0,1,.85-2.8c.52.89,1.07,1.76,1.64,2.59ZM6.17,10.78a19.53,19.53,0,0,1-1-2c-.07-.15-.12-.31-.18-.46.43-.14.85-.28,1.28-.4a14.52,14.52,0,0,1,1.84-.34,25,25,0,0,0-1.65,2.58C6.37,10.35,6.28,10.57,6.17,10.78ZM17.9,14.94c.17.42.31.85.46,1.28l-.52.09-1,.12C17.2,15.94,17.57,15.45,17.9,14.94ZM6.23,2.57a8.9,8.9,0,0,1,5,1.65,13.91,13.91,0,0,1,2.72,2.7c-1.41-.21-2.82-.33-4.18-.4.49-.63.61-.83,1.14-1.43a.3.3,0,0,0,0-.41.31.31,0,0,0-.41,0A23.16,23.16,0,0,0,9,6.49c-.21,0-2.21.59-2.83.75-.46.11-.91.24-1.36.38C3.81,4.75,3.48,2.7,6.23,2.57ZM2.42,13.79a5.56,5.56,0,0,1-.54-.42,4.06,4.06,0,0,1-.45-.48,2,2,0,0,1-.27-2.33A4.39,4.39,0,0,1,3.32,8.93c.35-.14.71-.27,1.08-.4,0,.16.1.33.16.5a22.88,22.88,0,0,0,1.2,2.56A18.89,18.89,0,0,0,4.57,15,13.81,13.81,0,0,1,2.42,13.79Zm9,6.84a6.71,6.71,0,0,1-2,1,3.84,3.84,0,0,1-2.77-.08,2.7,2.7,0,0,1-1.44-2.2,7.59,7.59,0,0,1-.07-1.07c0-.37,0-.73.05-1.09s.08-.58.12-.88c.41.16.83.31,1.26.44a19.84,19.84,0,0,0,3.09.67c.15.21.29.42.45.61a14.81,14.81,0,0,0,1.73,1.81l.28.22C11.82,20.28,11.6,20.46,11.37,20.63ZM18.81,19a2.7,2.7,0,0,1-.1.58,1.8,1.8,0,0,1-2,1.37,7.28,7.28,0,0,1-2.94-1c.35-.36.7-.72,1-1.07s.75-.88,1.12-1.33l.58,0a12,12,0,0,0,1.22-.14c.33,0,.66-.1.95-.16a5.62,5.62,0,0,1,.15,1.08C18.82,18.56,18.82,18.79,18.81,19Zm3.89-4.7A5.39,5.39,0,0,1,19.45,16c-.25-.75-.55-1.49-.82-2.23a27.65,27.65,0,0,0,1.85-3.69,1.34,1.34,0,0,1,.07-.18,6.24,6.24,0,0,1,.68.46c.24.2.47.42.7.65a6.25,6.25,0,0,1,.4.5,3,3,0,0,1,.33.54A2.15,2.15,0,0,1,22.7,14.31Z" fill="#0c6fff" fill-rule="evenodd"></path><path d="M12.15,9.31a.33.33,0,0,0-.35.31.33.33,0,0,0,.3.35,1.42,1.42,0,0,1,1,.53,1.81,1.81,0,0,1,.28,1.15,1.39,1.39,0,0,1-.44.94,1.53,1.53,0,0,1-.94.46,1.23,1.23,0,0,1-1.37-.74,1.7,1.7,0,0,1,.3-1.79.3.3,0,0,0,0-.41.31.31,0,0,0-.42,0,2.41,2.41,0,0,0-.71,2.5,2.15,2.15,0,0,0,2.28,1.54,2.53,2.53,0,0,0,1.64-.81,2.34,2.34,0,0,0,.62-1.72A2.71,2.71,0,0,0,13.75,10,2.11,2.11,0,0,0,12.15,9.31Z" fill="#191919" fill-rule="evenodd"></path></g></svg>