<svg xmlns="http://www.w3.org/2000/svg" viewBox="0 0 24 24"><g><path d="M23.63,7.42c-.12-1.17-.08-3.58-.9-4.23C20.81,1.68,16.59,2.08,13.92,2c-3.48-.15-7.19.14-10.62.24a.34.34,0,0,0,0,.67c3.47-.05,7.07-.29,10.57-.09,2.47.15,6.65-.14,8.25,1.16.4.33.41,2.73.49,3.58a42,42,0,0,1,.08,9,13.8,13.8,0,0,1-.45,3c-2.42,1.4-19.68,2.38-20.71.55a21,21,0,0,1-.65-4.63A41.44,41.44,0,0,1,1,7.52c.08,0,7.33.33,12.58.24,2.33,0,4.68-.13,6.76-.21a.33.33,0,1,0,0-.66c-7.71-.16-12.89-.43-19.3.05.11-1.38.48-3.92.38-4a.3.3,0,0,0-.42,0C.63,3.35.71,4.71.64,5.19S.5,6.26.44,6.79a45.14,45.14,0,0,0-.36,8.64,21.8,21.8,0,0,0,.66,5c1.46,2.7,17.24,1.46,20.94.43,1.45-.4,1.69-.8,1.87-1.95A40.38,40.38,0,0,0,23.63,7.42Z" fill="#191919" fill-rule="evenodd"></path><path d="M4.54,5.25a.84.84,0,0,0-.21-1c-.77-.41-1.71.39-1,1.1A.83.83,0,0,0,4.54,5.25Z" fill="#191919" fill-rule="evenodd"></path><path d="M7.17,5c.14-.14.19-.84-.2-1-.77-.41-1.71.39-1,1.09A.82.82,0,0,0,7.17,5Z" fill="#191919" fill-rule="evenodd"></path><path d="M10.05,5a.83.83,0,0,0-.21-1c-.77-.41-1.71.39-1,1.09A.82.82,0,0,0,10.05,5Z" fill="#191919" fill-rule="evenodd"></path><path d="M5.76,13.73c0,.08.23,2.47.31,2.56a.37.37,0,0,0,.63-.14c0-.09,0,0,.15-1.72a10,10,0,0,0-.11-2.23,5.33,5.33,0,0,1-.26-1.37.3.3,0,0,0-.54-.24,6.79,6.79,0,0,0-.2,2.33c-1.28-.38-1.12.13-1.13-.42a15.38,15.38,0,0,0-.19-1.93c-.16-.17-.36-.17-.51.14a19.94,19.94,0,0,0-.43,3.47,8.82,8.82,0,0,0,.42,2.27c.26.4.7.22.7-.1,0-.09-.16-.09,0-1.86C4.66,13.31,4.37,14.19,5.76,13.73Z" fill="#0c6fff" fill-rule="evenodd"></path><path d="M10.79,11.18c.32-.07.41-.28.39-.37,0-.55-3.32-.34-3.46-.24s-.2.18-.18.28,0,.11,0,.16a3.82,3.82,0,0,0,1.59.36c0,.3,0,.68,0,.82A15,15,0,0,0,9,15.32c0,.2-.09.94.17,1.16a.34.34,0,0,0,.48,0,3.65,3.65,0,0,0,.21-1.09A8,8,0,0,0,10,12.16c0-.13.05-.7-.1-.89A8.17,8.17,0,0,0,10.79,11.18Z" fill="#0c6fff" fill-rule="evenodd"></path><path d="M16.33,11a.69.69,0,0,0-.89-.44,2.78,2.78,0,0,0-1.25,1,2.3,2.3,0,0,0-.41-.83,1,1,0,0,0-1.6.27,7.06,7.06,0,0,0-.35,2.07c0,.57,0,2.64.06,2.76.14,1.09,1,.51.63.13A17.55,17.55,0,0,1,12.9,12c.32-1.18.32.2.39.51s.11,1.08.73,1.08.48-.93,1.4-1.78a24.1,24.1,0,0,1,0,2.69,14.87,14.87,0,0,0,0,1.81.34.34,0,1,0,.68,0,13.37,13.37,0,0,0,.11-1.73A16.76,16.76,0,0,0,16.33,11Z" fill="#0c6fff" fill-rule="evenodd"></path><path d="M17.77,10.8c-.05.16-.3,3-.31,3.2a6.26,6.26,0,0,0,.21,1.74c.33,1,1.21,1.07,2.29.82a3.72,3.72,0,0,0,1.14-.23c.21-.22.1-.59-.41-.64a11,11,0,0,1-1.64.07c-.44-.07-.34,0-.67-4.44a2.22,2.22,0,0,0,0-.37A.31.31,0,1,0,17.77,10.8Z" fill="#0c6fff" fill-rule="evenodd"></path></g></svg>