<svg xmlns="http://www.w3.org/2000/svg" viewBox="0 0 24 24"><g><path d="M18.3,22.75a14.78,14.78,0,0,1-2,.13c-1.6,0-3.21-.13-4.79-.12l-4.1,0L5,22.74a9.91,9.91,0,0,1-1.38-.14,4.58,4.58,0,0,1-1.26-.39L1.87,22a8.07,8.07,0,0,1-.44-2.12c-.1-1.27,0-2.6-.08-3.76,0-.75-.06-1.51-.06-2.27s0-1.51,0-2.26c.06-1.2.09-2.44.18-3.67.3,0,.59-.08.88-.1.71,0,1.4,0,2.09,0s1.34-.1,2-.15,1.33-.14,2-.14a10.59,10.59,0,0,1,1.69.12.39.39,0,0,0,.17-.76,12.38,12.38,0,0,0-3-.48c-.4,0-.8,0-1.2,0-.61,0-1.21.1-1.79.16s-1.4.24-2.1.4l-.68.2A18.32,18.32,0,0,1,2,4.34a.34.34,0,0,0-.24-.42.34.34,0,0,0-.42.24A35.28,35.28,0,0,0,.3,11.53c-.06.77-.11,1.54-.14,2.32s0,1.54,0,2.31c0,1.18-.08,2.53,0,3.84a8.53,8.53,0,0,0,.58,2.66,1,1,0,0,0,.37.42,4.39,4.39,0,0,0,.71.31,5.83,5.83,0,0,0,1.26.42A10.25,10.25,0,0,0,5,24l2.5,0,4.08-.19c1.59-.06,3.2,0,4.8-.05a16.44,16.44,0,0,0,2.09-.21.39.39,0,0,0,.32-.44A.39.39,0,0,0,18.3,22.75Z" fill="#191919" fill-rule="evenodd"></path><path d="M11.47,14.31A.4.4,0,0,0,11.9,14a.39.39,0,0,0-.35-.42,12.75,12.75,0,0,0-3.09-.15,13.48,13.48,0,0,0-1.8.28c-.89.21-1.74.5-2.59.71a.34.34,0,0,0-.3.38.35.35,0,0,0,.39.3c1,0,2-.06,3-.18l.65-.1a5.48,5.48,0,0,1,.35,2.63,3,3,0,0,1-.42,1.2,2.78,2.78,0,0,1-.88.9,3,3,0,0,1-.52.31,1.4,1.4,0,0,1-.49.15,1.64,1.64,0,0,1-.53-.09,9.49,9.49,0,0,1-1-.43.39.39,0,0,0-.52.17.38.38,0,0,0,.17.52c.31.19.62.42,1,.59a2.49,2.49,0,0,0,.87.26,2.59,2.59,0,0,0,.73-.07,4.63,4.63,0,0,0,.92-.36,3.58,3.58,0,0,0,1.8-2.31,5.24,5.24,0,0,0-.71-3.59l.32-.05A15.21,15.21,0,0,1,11.47,14.31Z" fill="#0c6fff" fill-rule="evenodd"></path><path d="M16.15,19.51a3.53,3.53,0,0,1-1.78.59,2.86,2.86,0,0,1-1.78-.52.39.39,0,0,0-.48.61,3.72,3.72,0,0,0,2.26.83,4.41,4.41,0,0,0,2.34-.57A3.12,3.12,0,0,0,18,19.12a2,2,0,0,0,.12-1.4A1.84,1.84,0,0,0,17,16.5a11.94,11.94,0,0,0-2.43-.43c-.52-.08-1-.21-1-.86,0-.11.08-.18.17-.25a2.88,2.88,0,0,1,.41-.27,3.84,3.84,0,0,1,1.62-.47,3.12,3.12,0,0,1,1.64.37.34.34,0,0,0,.47-.11.35.35,0,0,0-.11-.47,3.84,3.84,0,0,0-2-.63,4.6,4.6,0,0,0-2.07.39,3,3,0,0,0-.91.56,1.27,1.27,0,0,0-.38.93,1.9,1.9,0,0,0,.61,1.49,4.64,4.64,0,0,0,2.56.75,3.47,3.47,0,0,1,1,.2.66.66,0,0,1,.43.4.93.93,0,0,1-.09.71A2.09,2.09,0,0,1,16.15,19.51Z" fill="#0c6fff" fill-rule="evenodd"></path><path d="M13.81,2.53c-.58,0-.88-.16-1.28.09a1.83,1.83,0,0,0-.4,1.11c0,.07,0,.14,0,.21C12,4.47,12,5,12,5.54L11.87,7l0,1,0,1a.13.13,0,0,1,0,0,2.63,2.63,0,0,0,0,.38.64.64,0,0,0,.25.35.61.61,0,0,0,.56.08,2.1,2.1,0,0,0,.89-.64,10.41,10.41,0,0,0,1-1.63,1.25,1.25,0,0,1,.06-.21l1,1.3c.15.2.5.75.56.81a.59.59,0,0,0,.38.22.54.54,0,0,0,.59-.24,1.21,1.21,0,0,0,.22-.5,4.48,4.48,0,0,0,.09-.85L17.3,5.46l-.19-1.58c0-.62-.13-.83-.31-1C16.45,2.49,14.93,2.62,13.81,2.53Zm2.61,5c-.15-.21-.28-.43-.44-.64a6.76,6.76,0,0,0-.54-.66A2.73,2.73,0,0,0,15,5.81a.84.84,0,0,0-.39-.14.7.7,0,0,0-.67.34,6.78,6.78,0,0,0-.45.86c-.13.25-.31.62-.51,1L12.87,7l0-1.44c0-.45,0-.9,0-1.35,0-.17,0-.32,0-.49l.88,0,2.55.08.1,1.7L16.45,7Z" fill="#0c6fff" fill-rule="evenodd"></path><path d="M23.85,9.51C23.38-.5,23.8.85,16.08.22,14.63.1,13.09,0,11.59,0A31.86,31.86,0,0,0,4.08.67a.31.31,0,0,0-.2.15h0a.37.37,0,0,0-.16.24,3.17,3.17,0,0,0-.28.78.93.93,0,0,0,0,.33,1.13,1.13,0,0,0,.05.32A1.93,1.93,0,0,0,3.68,3l-.82.11a.35.35,0,0,0-.27.4A.32.32,0,0,0,3,3.76l2.3-.1c1.47-.07,2.92,0,4.38,0,.78,0,.86-.05,1.64,0,.54,0,.41-1.25-.15-1.26-.8,0-1.6,0-2.39,0-1.19.06-2.38.19-3.56.36l-.65.09a2,2,0,0,0,.15-.55,1.71,1.71,0,0,0,0-.45,5,5,0,0,0-.16-.55,22.5,22.5,0,0,1,3.38-.17c.91,0,1.91.08,3,.12l2.95.11c3.46.11,6.81.26,8.32.45.25,1.9.37,3.8.43,5.7,0,.76,0,1.51,0,2.27,0,1.14,0,2.27,0,3.41,0,2.68,0,5.35,0,8l-.4-.08a2.43,2.43,0,0,0-.38,0,2.31,2.31,0,0,0-.37,0c-.3.05-.55.15-.83.22,0-.27.09-.55.12-.82.16-1.44.19-2.92.26-4.29.05-1.72.09-3.43,0-5.14-.1-2.57-.39-5.12-.67-7.68A.35.35,0,0,0,20,3.12c-.06,0-.09,0-.13.06l-2.09-.24c-.6-.07-.43.71,0,.88.8,0,1.13.11,1.93.14q0,1.35.06,2.7c-.19,0-.38-.11-.59-.15a3.73,3.73,0,0,0-.48,0,2.59,2.59,0,0,0-.48,0l-.17,0a.8.8,0,0,0,0,1.16l.2,0,.45,0a3.42,3.42,0,0,0,.46,0l.63-.1c0,1.38,0,2.75,0,4.13s0,3,0,4.45.09,2.81,0,4.24a13.51,13.51,0,0,1-.38,2.73.39.39,0,0,0,.75.22c.14-.44.25-.89.35-1.35a5.58,5.58,0,0,0,.92.33,2.69,2.69,0,0,0,.4,0,2.73,2.73,0,0,0,.4-.05c1.51-.31,1.35.35,1.63-7.93C23.91,12.8,23.93,11.15,23.85,9.51Z" fill="#191919" fill-rule="evenodd"></path></g></svg>