<svg xmlns="http://www.w3.org/2000/svg" viewBox="0 0 24 24"><g><g><path d="M16,15c4.38.62,7.5,2.23,7.5,4.11,0,2.43-5.15,4.39-11.5,4.39S.5,21.54.5,19.11C.5,17.23,3.62,15.62,8,15" fill="none" stroke="currentColor" stroke-linecap="round" stroke-linejoin="round"></path><path d="M16,17.5c2.39.33,4,.94,4,1.64,0,1-3.58,1.89-8,1.89s-8-.85-8-1.89c0-.7,1.61-1.31,4-1.64" fill="none" stroke="currentColor" stroke-linecap="round" stroke-linejoin="round"></path></g><g><circle cx="12" cy="3.25" r="2.75" fill="none" stroke="currentColor" stroke-linejoin="round"></circle><path d="M13.5,19l.42-5.5H15.5v-3a3.5,3.5,0,0,0-7,0v3h1.58L10.5,19" fill="none" stroke="currentColor" stroke-linecap="round" stroke-linejoin="round"></path></g></g></svg>