<svg xmlns="http://www.w3.org/2000/svg" fill="none" viewBox="0 0 24 24"><path stroke="currentColor" stroke-linecap="round" stroke-linejoin="round" d="M16.5 0.5H7.5C6.39543 0.5 5.5 1.39543 5.5 2.5V21.5C5.5 22.6046 6.39543 23.5 7.5 23.5H16.5C17.6046 23.5 18.5 22.6046 18.5 21.5V2.5C18.5 1.39543 17.6046 0.5 16.5 0.5Z"></path><path stroke="currentColor" stroke-linecap="round" stroke-linejoin="round" d="M18.5 19.5H5.5"></path><path stroke="currentColor" stroke-linecap="round" stroke-linejoin="round" d="M18.5 4.5H5.5"></path><path stroke="currentColor" stroke-linecap="round" stroke-linejoin="round" d="M10.5 2.5H13.5"></path><path stroke="currentColor" d="M12 21.75C11.8619 21.75 11.75 21.6381 11.75 21.5C11.75 21.3619 11.8619 21.25 12 21.25"></path><path stroke="currentColor" d="M12 21.75C12.1381 21.75 12.25 21.6381 12.25 21.5C12.25 21.3619 12.1381 21.25 12 21.25"></path></svg>