<svg xmlns="http://www.w3.org/2000/svg" viewBox="0 0 24 24"><g><path d="M22.42,13c0-.45,0-.78-.05-.94a.72.72,0,0,0-.64-.67c-.64,0-1.4-.06-2,0a2.19,2.19,0,0,0-1.08.35.58.58,0,0,0-.25.45l0,1.9a8.67,8.67,0,0,1-2.46.07l-.24-.05a25.38,25.38,0,0,1,0-3.28,1.63,1.63,0,0,0-.09-.6.55.55,0,0,0-.49-.29,6.77,6.77,0,0,0-.8,0c-1.6,0-5.12,0-7.74,0a.39.39,0,0,0-.41.38c0,.38,0,.81,0,1.22,0,.59,0,1.15,0,1.49-.47,0-1.32.11-2.14.14a11.75,11.75,0,0,1-1.62,0,.37.37,0,0,0-.28.09.38.38,0,0,0-.14.26c-.07.85-.11,1.84-.14,2.79-.07,2-.06,3.8-.06,4.18,0,.14-.07,1.24,0,1.89A1.62,1.62,0,0,0,1.9,23a.84.84,0,0,0,.34.24,7.26,7.26,0,0,0,1.34.25A96.23,96.23,0,0,0,16,24a19.13,19.13,0,0,0,5.48-.73,1.3,1.3,0,0,0,.8-.81C22.64,21.05,22.52,15.36,22.42,13Zm-2.23,9.3a41.16,41.16,0,0,1-6.15.47A95.85,95.85,0,0,1,3.5,22.49c-.32,0-.62-.17-.79-.19,0-.62,0-1.76,0-1.9,0-.37-.06-2.21,0-4.15,0-.81,0-1.64.06-2.38.39,0,.86,0,1.34,0,3.47-.2,2.87.31,2.87-3.14,2.56.05,5.8.11,7.31.16l.43,0V11c0,.56-.11,1.42-.11,2.28a8.91,8.91,0,0,0,.09,1.29.74.74,0,0,0,.55.54,8.81,8.81,0,0,0,2.29.19,3.58,3.58,0,0,0,1.7-.36.74.74,0,0,0,.29-.59l.05-1.75a2.93,2.93,0,0,1,.53,0c.36,0,.74,0,1.11,0l0,.45C21.54,24,21.13,22.09,20.19,22.29Z" fill="#191919" fill-rule="evenodd"></path><path d="M13.08,7.21a.32.32,0,0,0,.24.27s-.08.09-.08.16a.34.34,0,0,0,.28.38,6.64,6.64,0,0,0,1.08.4,2,2,0,0,0,.49.06,3.91,3.91,0,0,0,.49,0,5.23,5.23,0,0,0,1-.26.39.39,0,0,0,.27.13.37.37,0,0,0,.4-.35l.13-1.6a.78.78,0,0,0,0-.13c.16,0,.34.07.53.11a5.19,5.19,0,0,0,1.19.14,1.37,1.37,0,0,0,.85-.35.79.79,0,0,0,.21-.38,4.77,4.77,0,0,0,0-.92A5.08,5.08,0,0,0,20,3.45a1.18,1.18,0,0,0-.64-.82,1.7,1.7,0,0,0-.69-.13,7,7,0,0,0-1,.11c-.12,0-.24,0-.36,0s-.1-.3-.11-.33c-.07-.41,0-1-.05-1.47-.15-.82-.11-1-2.48-.75a2.4,2.4,0,0,0-1.29.52,1.07,1.07,0,0,0-.32.48,3.67,3.67,0,0,0-.15.79,11.39,11.39,0,0,0-.12,1.31c0,.43,0,.86,0,1.29l.05,1.13Zm.76-1.6L14,4.54,14.22,2V1.45a1.26,1.26,0,0,1,.67-.38A6.06,6.06,0,0,1,16.43,1s0,0,0,0c0,.49-.15,1-.12,1.46,0,.06,0,.51,0,.69a.56.56,0,0,0,.32.45,2,2,0,0,0,.62.17,9.12,9.12,0,0,0,1.17,0c.77,0,.41.12.41,1.07,0,.06.09.32.1.5a1,1,0,0,1-.43,0c-.35,0-.74-.08-1.07-.08a1.82,1.82,0,0,0-.73.1.53.53,0,0,0-.31.48c0,.13,0,.45,0,.51v1c-.3,0-.6-.09-.91-.13a5.65,5.65,0,0,0-.71,0c-.4,0-.76.11-1.15.15a.25.25,0,0,0,.06-.17Z" fill="#191919" fill-rule="evenodd"></path><path d="M7,19.3c-.25-.17-.54-.32-.81-.5L6,18.62H6c.23-.16.49-.3.68-.42l3-1.73A.34.34,0,0,0,9.82,16a.33.33,0,0,0-.44-.15c-.77.28-1.55.5-2.31.79a8.83,8.83,0,0,0-1,.45,7,7,0,0,0-.8.48,2.21,2.21,0,0,0-.55.55.68.68,0,0,0-.12.48,2.39,2.39,0,0,0,.38.68,2.28,2.28,0,0,0,.5.38c.33.19.71.31,1,.47l1.27.69a.38.38,0,0,0,.28-.71Z" fill="#0c6fff" fill-rule="evenodd"></path><path d="M13.08,14.77a.34.34,0,0,0-.13-.46.33.33,0,0,0-.45.13l-1.23,2.21c-.27.59-.6,1.16-.87,1.76a27.29,27.29,0,0,0-1,2.83.38.38,0,0,0,.71.29c.51-1,1.16-2,1.69-3,.23-.45.41-.92.61-1.39s.29-1.13.47-1.7A4.38,4.38,0,0,1,13.08,14.77Z" fill="#0c6fff" fill-rule="evenodd"></path><path d="M16.48,18.05l-2.06-1.26a.33.33,0,0,0-.46.1.34.34,0,0,0,.1.46l1.64,1.59-.42.27c-.56.36-1.15.69-1.71,1.07a6.68,6.68,0,0,0-.72.57.38.38,0,1,0,.47.6,5.38,5.38,0,0,1,.71-.39c.6-.28,1.25-.5,1.85-.76a6.41,6.41,0,0,0,.93-.53,1.54,1.54,0,0,0,.44-.53.68.68,0,0,0-.2-.81A5.52,5.52,0,0,0,16.48,18.05Z" fill="#0c6fff" fill-rule="evenodd"></path><path d="M3.58,8.63a5.65,5.65,0,0,0,.92,0c.46,0,.9-.13,1.35-.16a.38.38,0,0,0,.38-.29s0,.05.09.05a.37.37,0,0,0,.42-.33A19.31,19.31,0,0,0,7,5.74,7.59,7.59,0,0,0,7,4.23a3.73,3.73,0,0,0-.25-1.05,1.92,1.92,0,0,0-.54-.71,1.32,1.32,0,0,0-.49-.22c-.38-.09-1-.11-1.16-.14A5.58,5.58,0,0,0,2.74,2a1.44,1.44,0,0,0-1,.59,2.11,2.11,0,0,0-.23.64,9,9,0,0,0,0,1.13L1.56,8S1.26,8.33,3.58,8.63Zm-1-4.23c0-.2,0-.47.07-.73a.91.91,0,0,1,.14-.42s.07,0,.11,0a2.42,2.42,0,0,1,.39,0c.4,0,.81.13,1.06.17.65.09,1.2-.6,1.58,1a7.21,7.21,0,0,1,.15,1.32c0,.68,0,1.36-.07,2,0,0,0,0-.08,0C5.47,7.6,5,7.49,4.57,7.42L4,7.37a3.49,3.49,0,0,0-.56,0c-.41,0-.78.11-1.18.13,0-.44,0-.88.09-1.33S2.47,5,2.56,4.4Z" fill="#191919" fill-rule="evenodd"></path></g></svg>