<svg xmlns="http://www.w3.org/2000/svg" viewBox="0 0 200 200"><defs></defs><path d="M99.074 99.506a23.26 23.26 0 0 1-5.739 6.277c.028.207.056.409.1.605-2.318.683-1.373 3.485 1.126 2.917.2-.05.576.639.688.784 2.518 3.32 9.685.626 7.308-5.655a11.981 11.981 0 0 0-3.483-4.928z" fill="#fcafb7"></path><path d="M87.444 108.858a.473.473 0 0 1 .056-.017c0 .073.017 2.155.807 2.122.806-.04 1.321-1.03 1.321-1.03-2.254 4.156.578 3.749 1.8 1.579a2.793 2.793 0 0 1 .089 1.36 1.872 1.872 0 0 1-.75 1.171c-1.27.906 2.384 1.191 2.94-.768.467.565 1.381 1.3 1.973.779.591-.507.465-2.317.395-3.158a3.444 3.444 0 0 1-.84-.8c-.112-.146-.481-.835-.688-.785-2.478.574-3.459-2.229-1.126-2.917-.039-.2-.067-.4-.095-.6a23.338 23.338 0 0 0 5.739-6.278 50.369 50.369 0 0 0 3.3-5.969c.2-.448-.465-.845-.667-.392a41.8 41.8 0 0 1-2.626 4.878 23.3 23.3 0 0 1-5.829 6.837 19.476 19.476 0 0 1-5.924 3.208.7.7 0 0 1-.1.028c-.458.135-.253.894.225.752z" fill="#000001"></path><path d="M93.257 104.871a23.89 23.89 0 0 0 5.829-6.837c-3.6-2.162-7.42-3.954-10.785-.331-1.825 1.966-3.253 4.441-2.531 6.938a22.223 22.223 0 0 0 1.568 3.449 19.39 19.39 0 0 0 5.919-3.219z" fill="#77d8a2"></path><path d="M99.388 103.65a.571.571 0 0 0 0-1.142.571.571 0 0 0 0 1.142zm-.162-1.764a.291.291 0 0 0-.157-.56 5.724 5.724 0 0 0-1.815 1.041.293.293 0 0 0 0 .409c.247.223.424-.035.84-.319a5.161 5.161 0 0 1 1.132-.571zm3.656 3.472c-.353-.622-1.134.613-3.556-.023a.387.387 0 0 0-.207.745 5.635 5.635 0 0 0 3.629-.19.4.4 0 0 0 .134-.532z" fill="#000001"></path><path d="M107.426 140.355a20.745 20.745 0 0 1-7.3 2.043 17.706 17.706 0 0 1-4.309.919 91.186 91.186 0 0 1-9.239.134c-.3.052-.31-2.784 1.251 35.037a16.256 16.256 0 0 0 9.671 0v-19.582c-1.017-8.659-.206-2.16-1.165-7.912-.03-.031.337.345-2.553-2.839-.336-.37.213-.913.549-.549.106.112 1.536 1.695 1.674 1.848 1.011 1.121 1 .952 1.108 1.518a43.758 43.758 0 0 1 1.008 6.545c2.693 22.357 2.626 21.141 2.352 21.284a17.242 17.242 0 0 0 8.9-.28c.016.006 1.502-22.678-1.947-38.166z" fill="#ffd869"></path><path d="M91.605 30.173c-3.595-2.895-9.822 3.774-9.822 3.774A2.973 2.973 0 0 0 81.43 30c-1.931-1.842-4.737 3.248-4.737 3.248s2.369-6.053-2.8-7.632-10.353 8.421-10.353 8.421.263-.527-2.369-1.053-3.771 2.984-3.771 2.984c9.295 1.406 35.344-.173 35.344-.173s2.456-2.727-1.139-5.622zM194.966 22.1c-.79-2.105-3.947-.532-3.947-.532s1.182-1.053 0-3.024-5.264 1.445-5.264 1.445 4.34-6.843-.789-9.867-11.58 9.077-11.58 9.077 2.234-7.5-4.474-7.632-10 8.685-10 8.685-.655-.79-2.9-.79c-1.411 0-2.727 1.227-1.691 2.453.829.98 2.789.974 3.936.98 13.05.059 37.762 2.014 36.709-.795z" fill="#fcafb7"></path><path d="M108.8 138.49c-1.075-.073-2.116-1.221-2.85-2.251a8.493 8.493 0 0 1-5.818 6.159 20.745 20.745 0 0 0 7.3-2.043 6.149 6.149 0 0 0 1.425-1.1s0-.3-.028-.823a.2.2 0 0 1-.029.058zm12.449-15.438s-4.3 5.084-7.106 5.174c-2.892.086-4.07-8.273-8.646-12.1a15.3 15.3 0 0 0-1.464-1.091.456.456 0 0 1 .028.044l-.974 2.056a15.352 15.352 0 0 1 1.343 4.015c.6 2.812 2.009 9.4 1.9 12.094a8.53 8.53 0 0 0 2.29 2.923s.073.139.1.2c6.622 1.8 13.034-2.731 16.554-8.573-.392-.478.183.206-4.025-4.742zm-19.605-9.34a10.734 10.734 0 0 0-3.113-.963c-.784-.1-1.6-.185-2.407-.229a2.294 2.294 0 0 1-.446 1.534 12.647 12.647 0 0 1 4.855.582 1.51 1.51 0 0 1 1.111-.924zm-15.009 2.293a8.654 8.654 0 0 1 3.88-1.653.609.609 0 0 1 .25-.309 1.9 1.9 0 0 0 .75-1.171c-1.273.328-4.821 1.918-4.88 3.133zm7.07-2.73a1.746 1.746 0 0 1-.609.893c.493-.028 1.025-.054 1.574-.082a3.653 3.653 0 0 1-.965-.811z" fill="#bef8d4"></path><path d="M131.115 119.323c-.414-.319-1.181.123-1.994.812a26.7 26.7 0 0 0-2.962 3.18c.373-1.726.341-3.337-.307-3.511-.89-.23-3.346 3.361-3.853 4.133l3 3.527c3.101-1.702 7.224-7.289 6.116-8.141z" fill="#fcafb7"></path><path d="M108.619 136.166a8.38 8.38 0 0 1-2.29-2.923c.13-2.61-1.307-9.339-1.9-12.094a15.315 15.315 0 0 0-1.343-4.015l.974-2.056c-.959-1.463-2.744-2.006-3.528-.442a12.625 12.625 0 0 0-4.855-.582.858.858 0 0 1-1.008.032c-.555.022-1.087.053-1.574.082-.985.783-2.693.683-2.581.184a8.712 8.712 0 0 0-7.315 8 39.125 39.125 0 0 0 .341 8.074c-1.953 1.44-1.31 6.412-.633 9.671a4.237 4.237 0 0 0 3.671 3.354 90.476 90.476 0 0 0 9.239-.134c4.86-.483 8.955-2.321 10.138-7.078.734 1.03 1.775 2.179 2.85 2.251a2.426 2.426 0 0 0-.186-2.324zM86 119.345c2.627-1.07 7.373-1.643 12.572-.66.341.067.335.447.14.644l1.646 1.422-1.411.773c-.5-2.445-.382-2.067-.532-2.089-.185 1.327-.728 5.829.056 7.447 0 0-8.881-.918-13.025.264 0 0-1.148-3.957.465-7.071a.426.426 0 0 1 .089-.73zm10.735 15.021.246-2.279a99.9 99.9 0 0 0-13.528.742c-.493.056-.487-.717 0-.773a98.306 98.306 0 0 1 14.474-.7c.493.034.5.807 0 .773-.268-.017-.537-.017-.805-.028l1.2 1.965zm4.071 5.457c-.126-2.146-.84-8.852-2.671-9.979h-.012c-1.622-1.006-11.621.095-13.517.327-.493.062-.487-.711 0-.773 2.526-.313 10.763-1.175 13.384-.437a2.823 2.823 0 0 1 1.562 1.339c1.284 2.2 1.887 7.023 2.032 9.519.022.502-.751.496-.779.004zm1.3-7.2a42.951 42.951 0 0 1-.851-6.172c-.156-2.566.02-6.294.89-8.242.225-.442.855-.062.673.381.067-.208-1.958 4.213.039 13.836.098.482-.647.688-.748.202z" fill="#c98bef"></path><path d="M98.414 119.435a29.831 29.831 0 0 0-4.519-.468 21.692 21.692 0 0 0-7.694 1.126.293.293 0 0 1-.291-.018c-1.618 3.113-.465 7.071-.465 7.071 4.144-1.182 13.025-.264 13.025-.264-.784-1.613-.241-6.126-.056-7.447z" fill="#dcbeff"></path><path d="M136.356 111.142c-3.23-2.037-8.854-1.784-12.879-1.708-5.222.1-7.853.111-13.757-2.038-3.775-1.379-3.524-1.688-3.92-1.366a26.585 26.585 0 0 0-4.906 6.456.387.387 0 0 0 .667.392 26.4 26.4 0 0 1 4.58-6.12c10.384 4.915 15.739 3.086 23.221 3.465a14.5 14.5 0 0 1 6.182 1.367c-1.03 1.182-8.975 10.3-9.217 10.572-.072.638-.178 1.159-.178 1.159a26.665 26.665 0 0 1 2.962-3.181c.212-.246 6.892-7.912 7.307-8.393a.382.382 0 0 0-.062-.605zM50.051 74.269c-1.109 1.885-3.433 5.8-3.478 5.874q-.89-1.554-1.775-3.108a.387.387 0 0 0-.666.392l2.105 3.685a.391.391 0 0 0 .667 0c1.114-1.882 3.656-6.182 3.813-6.451a.387.387 0 0 0-.666-.392zm43.021 6.84a.39.39 0 0 0 .666 0c1.114-1.882 3.657-6.182 3.813-6.451a.387.387 0 0 0-.666-.392c-1.114 1.882-3.432 5.8-3.477 5.874q-.891-1.554-1.775-3.108a.387.387 0 0 0-.667.392c.7 1.227 1.399 2.459 2.106 3.685zM50.767 53.478V40.717a.386.386 0 0 0-.772 0v12.761a.386.386 0 0 0 .772 0zM94.841 59.6V46.843a.386.386 0 0 0-.772 0V59.6a.386.386 0 0 0 .772 0zm49.282-47.57v15.337a.386.386 0 0 0 .772 0V12.03a.386.386 0 0 0-.772 0zm-43.57 120.939c-1.036-3.937-2.069-4.2-4.984-4.283a88.181 88.181 0 0 0-10.975.71c-.487.062-.492.835 0 .773 1.889-.231 11.878-1.314 13.518-.33 1.719.475 2.566 8.049 2.682 9.984.027.492.8.5.772 0a40.544 40.544 0 0 0-1.013-6.854zm2.234-14.295c.256-.607-.446-.866-.644-.471-.885 1.981-1.045 5.713-.89 8.243a42.833 42.833 0 0 0 .851 6.17c.1.487.845.28.745-.207-.849-4.135-1.433-9.763-.062-13.735z" fill="#000001"></path><path d="m96.98 132.087-.246 2.279 1.579-.31-1.2-1.966c.269.011.538.011.806.028.5.033.493-.739 0-.773a97.79 97.79 0 0 0-14.474.7c-.488.056-.493.828 0 .773a97.584 97.584 0 0 1 13.535-.731zm2.156 33.802c-.493-4.121-1.667-14.74-2.167-15.387 0 0-2.522-2.779-2.626-2.9-.336-.371-.879.178-.549.548 2.89 3.185 2.523 2.808 2.554 2.839.009.085.6 3.025.632 3.281.007.074 2.881 24.151 2.895 24.224a.428.428 0 0 0 .616.319c.279-.15.253.525-1.355-12.924zM85.91 120.075c.349.226 4.643-2.117 12.453-.638.213.076.048-.5.583 2.1l1.411-.773-1.646-1.422a.364.364 0 0 0-.14-.645c-5.352-1.012-10.244-.341-12.571.662a.415.415 0 0 0-.09.716z" fill="#000001"></path><path d="M49.115 71.318c-3.656-.94-7.553 1.092-8.164 4.961-.957 6.059 6.893 9.794 11.082 5.387a6.21 6.21 0 0 0-2.918-10.348zm1.6 3.343c-.157.269-2.7 4.564-3.813 6.451a.391.391 0 0 1-.667 0l-2.105-3.685a.387.387 0 0 1 .666-.392q.891 1.554 1.775 3.108a4197.1 4197.1 0 0 0 3.478-5.874.387.387 0 0 1 .668.392zm45.235-3.343c-3.657-.94-7.554 1.092-8.164 4.961-.958 6.059 6.893 9.794 11.081 5.387a6.21 6.21 0 0 0-2.917-10.348zm1.6 3.34c-.156.269-2.7 4.564-3.813 6.451a.39.39 0 0 1-.666 0c-.7-1.226-1.406-2.458-2.106-3.685a.387.387 0 0 1 .667-.392q.89 1.554 1.775 3.108c.045-.073 2.363-3.987 3.477-5.874a.387.387 0 0 1 .667.392zm47.278-32.883a7.043 7.043 0 0 0-7.4 3.08c-2.835 4.765 1.3 10.533 6.752 10.023a6.709 6.709 0 0 0 5.936-5.482 6.634 6.634 0 0 0-5.288-7.621zm-.039 12.235c-4.386.925-8.79-3.222-7.145-7.828 1.439-4.032 7.139-5.058 10.135-2.016a5.9 5.9 0 0 1-2.99 9.844zM56.49 177.5a.387.387 0 0 0-.745.207c.213.851.426 1.7.633 2.554a.387.387 0 0 0 .745-.208c-.207-.853-.423-1.7-.633-2.553zm2.33-.871c-.635.176.112.868-.163 3.343a.387.387 0 0 0 .773 0 10.506 10.506 0 0 0-.13-3.072.392.392 0 0 0-.48-.271zm3.331 1.595a.4.4 0 0 0-.476.269c-.14.459-.28.919-.42 1.372a.39.39 0 0 0 .269.476.4.4 0 0 0 .476-.269l.42-1.372a.389.389 0 0 0-.269-.476zm95.568 1.355c.078.919.157 1.843.24 2.761a.387.387 0 0 0 .773 0c-.079-.918-.157-1.842-.241-2.761a.386.386 0 0 0-.772 0zm3.157-1.179c-.619 0-.166.7-1.114 3.651-.151.475.594.677.745.207a18.861 18.861 0 0 0 .756-3.472.386.386 0 0 0-.387-.386zm3.064 1.2-1.535 2.593a.385.385 0 0 0 .667.386l1.534-2.593a.385.385 0 0 0-.666-.386zm-43.554.472a.386.386 0 0 0-.744.207c.162.913.33 1.831.492 2.745a.387.387 0 0 0 .745-.208q-.243-1.368-.493-2.744zm1.624-.297a10.809 10.809 0 0 1-.145 3.057.386.386 0 0 0 .744.208 11.353 11.353 0 0 0 .173-3.265.386.386 0 0 0-.772 0zm3.041.302c-.191.791-.381 1.586-.566 2.375a.387.387 0 0 0 .745.207c.19-.789.381-1.584.565-2.374a.386.386 0 0 0-.744-.208z" fill="#77d8a2"></path><path d="m15.742 91.421.09 3.936.773-1.025-.135-2.895zm-6.002 8.824.072 3.136c.208-.275.415-.549.616-.823l-.106-2.3zm23.999 19.027.146 6.379h1.394l-.291-6.351-1.249-.028zm81.238 62.413c-1.515-1.177-5.129-.129-5.129-.129a11.074 11.074 0 0 0-.459-1.512c-2.867.812-7.5.381-7.98.336a19.8 19.8 0 0 0 .118 4.592 1.492 1.492 0 0 0 .756 1.047c1.3.609 4.791.419 6.215.286 2.029-.19 5.749-.706 6.5-2.588a4.724 4.724 0 0 0 .168-1.528.359.359 0 0 0-.028-.174.373.373 0 0 0-.161-.33zm-.649 1.624c-.628 2.305-9.253 2.689-11.412 2.1-.359-.1-.586-.1-.779-1.227a1.148 1.148 0 0 0 .046-.14c4.053 1.574 10.095.107 12.206-1.215a2.472 2.472 0 0 1-.061.482zm-13.628 1.439c-2.186 1.4-8.691 1.5-10.779.862-.333-.1-.445-.134-.582-.594a4.921 4.921 0 0 1-.162-.822c3.533 1.562 8.752.761 11.417-.314a19.964 19.964 0 0 1-.022-2.145 11.276 11.276 0 0 0-3.562.274 11.4 11.4 0 0 0-.4-1.528c-3.057.744-8.03.039-8.03.039-.044.414-.061.779-.067 1.109-.165 1.29-.362 4 .8 4.563 1.644.822 8.855.859 11.574-.655a5.364 5.364 0 0 1-.187-.789zm10.145-71.624a17.662 17.662 0 0 0 3.012-1.422.387.387 0 0 0-.392-.666 15.146 15.146 0 0 1-2.632 1.293c0-.022-.045-.163-.045-.179a7.033 7.033 0 0 1-.027-.98.387.387 0 0 0-.773 0c-.042.852.012 2.095.857 1.954zm8.937.605a16.862 16.862 0 0 1-2.632 1.294 4.467 4.467 0 0 1-.073-1.16.387.387 0 0 0-.773 0c-.041.848.018 2.093.857 1.954a17.53 17.53 0 0 0 3.013-1.422c.431-.24.045-.912-.392-.666zm4.687 1.781c-.764 0-.764.728 0 .728s.763-.728 0-.728zm4.115-4.222c-.978.909-3.186 3-3.326 3.124-.364.342.185.885.549.549.974-.913 3.186-3 3.326-3.125.367-.336-.186-.886-.549-.548zm-80.045 14.301.151 6.507h1.4l-.297-6.485-1.254-.022zm-27.035.392.157 6.764h1.4l-.308-6.742-1.249-.022zm147.452-23.994.1 4.384a.5.5 0 1 0 1-.033l-.2-4.335zm11.424 7.386-.9-.017.1 4.384a.5.5 0 1 0 1-.033zm-19.845 3.751.095 3.024a.5.5 0 1 0 1-.045l-.191-2.962z" fill="#77d8a2"></path><path d="M109.837 113.947c.607.32-.292 4.759-.493 5.605a.39.39 0 0 0 .566.437c1.072-.627 4.882-2.8 6.1-2.989.215 0 .013 1.687-.806 4.07-.134.4.376.6.644.375.82-.685 6.224-4.989 7.017-4.283.72.721-.185 4.24-.488 5.224a.364.364 0 0 0 .386.471c.14-.2.292-.4.454-.617.386-1.365 1.216-4.676.18-5.638-.729-.678-1.96.027-2.66.414a34.953 34.953 0 0 0-4.413 3.058c.257-.874.886-3.071.258-3.674-.532-.51-1.641.112-2.161.342-1.344.587-2.848 1.419-4.128 2.145a19.793 19.793 0 0 0 .515-3.837c.012-.672-.017-1.635-.8-1.87a4.6 4.6 0 0 0-2.709.51 21.08 21.08 0 0 0-2.112.957c-.442.23-.05.9.392.667.83-.439 3.371-1.659 4.258-1.367zm6.221 3.025zM50 44.771v-3.5c-.656.067-5.443.577-7.773 1.965-2.233 1.333 5.981 1.512 7.773 1.535zm132.132 42.775c.235.436.9.05.667-.392-.258-.482-13.266-23.726-14.811-26.369-4.5-7.727-12.694-21.447-18.305-28.406-1.216-1.5-3.846-4.832-5.684-4.278-6.845 2.063-30.176 46.513-33.44 52.787C108.048 77.1 99.294 63.866 95.793 60.8c-1.01-.88-1.529-1.035-2.85.247-4.327 4.183-15.054 22.939-17.986 28.184-2.5-4.141-19.744-33.071-24.044-35.025-.706-.325-1.31.067-1.876.493-2.789 2.128-8.424 8.972-10.785 11.848-1.674 2.044-33.115 43.134-33.177 43.218-.3.4.375.789.666.391.258-.347 33.648-43.8 35.238-45.7 1.375-1.645 7.5-9.007 9.357-9.626 2.094 0 12.1 15.675 13.193 17.387 1.545 2.4 13.814 22.549 13.892 22.683a.387.387 0 0 0 .666-.392c-3.043-5.142-2.711-4.46-2.637-4.608C77.4 86.387 90.7 62.787 94.5 60.886c1.125.375 4.544 4.371 11.921 15.242 1.629 2.4 7.509 11.356 7.548 11.418.269.42.935.028.667-.392a962.6 962.6 0 0 0-3.618-5.527c3.067-5.861 26.872-51.2 33.312-52.809 4.917-1.636 35.391 54.304 37.802 58.728z" fill="#ff8684"></path><path d="M94.068 50.891v-3.5c-.655.068-5.442.577-7.772 1.966-2.228 1.343 5.986 1.512 7.772 1.534zm50.049-33.782v-4.62s-7.055.639-10.348 2.6c-2.99 1.785 8.248 1.992 10.348 2.02zM35.481 182.413a35.893 35.893 0 0 0-4.57-.347.387.387 0 0 0 0 .773c4.156.046 4.669.649 4.838.05a.388.388 0 0 0-.268-.476zm12.011-2.957H44.07a.387.387 0 0 0 0 .773h3.422a.387.387 0 0 0 0-.773zm33.675 6.983a41.174 41.174 0 0 0-7.363-.258c-.493.028-.5.8 0 .773a40.988 40.988 0 0 1 7.363.258c.493.061.488-.712 0-.773zm3.158-2.906h-4.737a.387.387 0 0 0 0 .773h4.737a.387.387 0 0 0 0-.773zm32.892 6.053H105.9a.387.387 0 0 0 0 .773h11.317a.387.387 0 0 0 0-.773zm8.416-2.369q-4.207-.179-8.416-.341c-.5-.022-.5.75 0 .773q4.208.168 8.416.341c.499.022.499-.752 0-.773zm-61.04-.917h-3.158a.387.387 0 0 0 0 .773h3.158a.387.387 0 0 0 0-.773zm115.507-3.406c-4.157-.047-4.669-.648-4.838-.05a.389.389 0 0 0 .269.476 35.7 35.7 0 0 0 4.569.347.387.387 0 0 0 0-.773zm-13.154 2.615h-3.42a.387.387 0 0 0 0 .773h3.42a.387.387 0 0 0 0-.773zm-17.369-6.842h-3.159a.387.387 0 0 0 0 .773h3.159a.387.387 0 0 0 0-.773zM37.362 119.34a1.23 1.23 0 0 0 1.21-1.546c-.314-1.181-.79-2.895-1.316-4.642a1.226 1.226 0 0 0 1.187-1.54c-.935-3.512-3.243-11.669-4.413-11.669s-3.443 8.119-4.345 11.557a1.23 1.23 0 0 0 1.165 1.54c.458.01.376-.7-1.03 4.648a1.23 1.23 0 0 0 1.164 1.54zM14.046 87.792c.241 0 .215-.406-.6 2.693a.722.722 0 0 0 .683.9l3.746.067a.719.719 0 0 0 .706-.907c-.185-.694-.459-1.7-.773-2.721.47 0 .817-.275.694-.56-.173-.4-.425-.969-.711-1.563h.073c.476.006.829-.274.706-.56-.549-1.276-1.9-4.238-2.587-4.238s-2.016 2.951-2.548 4.2c-.118.269.2.532.638.555a27.943 27.943 0 0 0-.7 1.567c-.128.287.208.564.673.567zm-5.662 9.542c.212 0 .181-.33-.481 2.167a.571.571 0 0 0 .543.716l2.984.056a.576.576 0 0 0 .57-.722 69.868 69.868 0 0 0-.616-2.167.574.574 0 0 0 .554-.722c-.436-1.641-1.517-5.454-2.06-5.454s-1.607 3.8-2.033 5.4a.574.574 0 0 0 .539.726zm43.671 22.135a1.225 1.225 0 0 0 1.187-1.54c-.414-1.552-1.092-4-1.825-6.266h.083c.706.011 1.227-.538 1.042-1.1-.812-2.5-2.806-8.3-3.819-8.3s-2.979 5.78-3.763 8.221c-.174.548.319 1.079 1.008 1.091.565.01.339-.7-1.49 6.239a1.231 1.231 0 0 0 1.165 1.54c.459.009.376-.7-1.03 4.647a1.23 1.23 0 0 0 1.165 1.54l6.389.118a1.229 1.229 0 0 0 1.209-1.546 163.005 163.005 0 0 0-1.321-4.644zm-27.04.397a1.226 1.226 0 0 0 1.187-1.54c-.935-3.511-3.242-11.67-4.412-11.67s-3.444 8.12-4.346 11.558a1.23 1.23 0 0 0 1.165 1.54c.459.01.376-.7-1.03 4.648a1.23 1.23 0 0 0 1.165 1.54l6.389.117a1.229 1.229 0 0 0 1.209-1.545 164.48 164.48 0 0 0-1.327-4.648zM166.868 97.5c.313.006.272-.487-.745 3.354a.886.886 0 0 0 .84 1.109l4.609.089a.881.881 0 0 0 .868-1.114c-.23-.851-.566-2.088-.952-3.348a.882.882 0 0 0 .856-1.109c-.3-1.114-.789-2.889-1.315-4.519h.056c.509.006.884-.386.75-.789-.582-1.8-2.022-5.986-2.755-5.986s-2.145 4.166-2.71 5.93c-.129.392.229.777.728.789.425.01.228-.493-1.07 4.5a.878.878 0 0 0 .84 1.094zm16.093 10.792c-.232-.851-.566-2.089-.952-3.348a.882.882 0 0 0 .857-1.109c-.3-1.114-.789-2.89-1.316-4.519h.056c.509 0 .885-.387.75-.79-.582-1.8-2.021-5.985-2.754-5.985s-2.145 4.166-2.711 5.929c-.128.392.229.777.728.789.426.011.229-.493-1.069 4.5a.886.886 0 0 0 .84 1.109c.309.008.277-.5-.745 3.354a.886.886 0 0 0 .84 1.109l4.608.09a.9.9 0 0 0 .868-1.129zm-18.943 4.065c-.228-.611-.572-1.5-.952-2.408.582 0 1.008-.392.857-.8-.678-1.82-2.341-6.048-3.181-6.048s-2.48 4.211-3.135 5.992c-.146.4.268.792.839.8.319 0 .28-.364-.744 2.4-.146.4.269.79.84.795l4.608.062c.588.013 1.02-.385.868-.793zm5.818-3.024h-2.4a.387.387 0 0 0 0 .773h2.4a.387.387 0 0 0 0-.773zm3.079 5.135h-2.4a.387.387 0 0 0 0 .773h2.4a.387.387 0 0 0 0-.773zm-14.301 2.932h-2.4a.387.387 0 0 0 0 .773h2.4a.391.391 0 0 0 .387-.386.4.4 0 0 0-.387-.387zm-121.605 8.251h-4.737a.386.386 0 0 0 0 .772h4.737a.386.386 0 0 0 0-.772zm3.506 3.242h-3.332a.387.387 0 0 0 0 .773h3.332a.387.387 0 0 0 0-.773zm10.353 3.207h-3.332a.386.386 0 0 0 0 .772h3.332a.386.386 0 0 0 0-.772zm-25.041-2.463h-1.669a.387.387 0 0 0 0 .773h1.669a.39.39 0 0 0 .386-.387.4.4 0 0 0-.386-.386zm-6.708.045h-4.737a.387.387 0 0 0 0 .773h4.737a.387.387 0 0 0 0-.773zm4.603 3.069h-4.738a.386.386 0 0 0 0 .772h4.738a.386.386 0 0 0 0-.772z" fill="#ff8684"></path></svg>